<svg aria-hidden="true" style="position: absolute; width: 0; height: 0; overflow: hidden;" version="1.1" xmlns="http://www.w3.org/2000/svg" xmlns:xlink="http://www.w3.org/1999/xlink">
<defs>
<symbol id="icon-shopping-cart" viewBox="0 0 32 32">
<path d="M8.747 9.536c-0.187-4.021 3.061-8.085 7.227-8.069 4.208-0.112 7.68 3.931 7.264 8.064 2.016 0.4 4.304 1.195 5.104 3.285 1.056 2.747 0.101 5.717-0.128 8.533-0.4 2.491-0.213 5.451-2.229 7.301-2.235 2.123-5.557 1.877-8.411 1.888-3.189-0.144-6.512 0.416-9.595-0.651-2.245-0.784-3.648-3.035-3.792-5.349-0.309-3.531-1.248-7.051-0.891-10.603 0.373-2.672 3.035-4.037 5.451-4.4zM11.136 9.461c3.243 0.011 6.485 0.011 9.728 0 0.043-2.453-1.419-5.061-4.011-5.472-3.168-0.688-5.792 2.485-5.717 5.472zM8.736 12.011c-1.595 0.123-3.152 1.232-3.147 2.965-0.016 2.864 0.608 5.685 0.875 8.528 0.187 1.547 0.448 3.605 2.203 4.139 2.533 0.864 5.264 0.368 7.893 0.491 2.507-0.107 5.259 0.437 7.541-0.88 1.403-1.189 1.285-3.237 1.579-4.891 0.213-2.624 0.912-5.232 0.672-7.867-0.373-2.325-3.072-2.619-4.971-2.635-4.213 0.096-8.448-0.181-12.645 0.149z"></path>
<path d="M10.352 14.624c1.92-1.312 3.781 1.883 1.723 2.875-1.808 0.896-3.291-1.739-1.723-2.875z"></path>
<path d="M19.925 14.507c0.901-0.357 2.144 0.011 2.331 1.067 0.336 1.147-0.72 2.325-1.904 2.021-1.536-0.107-1.797-2.523-0.427-3.088z"></path>
</symbol>
<symbol id="icon-close" viewBox="0 0 32 32">
<path  d="M25.831 8.053l-1.884-1.884-7.947 7.947-7.947-7.947-1.884 1.884 7.947 7.947-7.947 7.947 1.884 1.884 7.947-7.947 7.947 7.947 1.884-1.884-7.947-7.947z"></path>
</symbol>
<symbol id="icon-arrow-select" viewBox="0 0 49 32">
<path d="M24.304 32l-24.304-32h48.613z"></path>
</symbol>
<symbol id="icon-delete" viewBox="0 0 32 32">
<path d="M22.666 8h6.666v2.666h-2.666v17.334c0 0.737-0.597 1.334-1.334 1.334h-18.666c-0.737 0-1.334-0.597-1.334-1.334v0-17.334h-2.666v-2.666h6.666v-4c0-0.737 0.597-1.334 1.334-1.334v0h10.666c0.737 0 1.334 0.597 1.334 1.334v0zM24 10.666h-16v16h16zM12 5.332v2.668h8v-2.668z"></path>
</symbol>
<symbol id="icon-arrow-left" viewBox="0 0 32 32">
<path d="M19.636 4.498c0.778-0.613 1.871 0.978 1.076 1.556-2.796 2.991-5.791 5.8-8.609 8.773-0.596 0.533-0.809 1.564-0.182 2.16 2.88 3.040 5.942 5.916 8.8 8.973 0.876 0.72-0.551 2.196-1.298 1.342-2.804-2.689-5.507-5.493-8.284-8.218-0.96-0.893-1.742-2.129-1.542-3.498 0.084-1.316 1.124-2.236 1.987-3.116 2.707-2.636 5.311-5.378 8.053-7.973z"></path>
</symbol>
<symbol id="icon-arrow-down" viewBox="0 0 48 48"><path d="M14.83 16.42L24 25.59l9.17-9.17L36 19.25l-12 12-12-12z"/><path fill="none" d="M0-.75h48v48H0z"/></symbol>
<symbol id="icon-view" viewBox="0 0 32 32">
<path d="M16 6c-6.667 0-12.36 4.147-14.667 10 2.307 5.853 8 10 14.667 10s12.36-4.147 14.667-10c-2.307-5.853-8-10-14.667-10zM16 22.667c-3.68 0-6.667-2.987-6.667-6.667s2.987-6.667 6.667-6.667 6.667 2.987 6.667 6.667-2.987 6.667-6.667 6.667zM16 12c-2.213 0-4 1.787-4 4s1.787 4 4 4 4-1.787 4-4-1.787-4-4-4z"></path>
</symbol>
<symbol id="icon-close" viewBox="0 0 25 32">
<path d="M23.178 23.607c0 0.447-0.178 0.893-0.501 1.214l-2.429 2.429c-0.321 0.321-0.768 0.501-1.214 0.501s-0.893-0.178-1.214-0.501l-5.25-5.25-5.25 5.25c-0.321 0.321-0.768 0.501-1.214 0.501s-0.893-0.178-1.214-0.501l-2.429-2.429c-0.321-0.321-0.501-0.768-0.501-1.214s0.178-0.893 0.501-1.214l5.25-5.25-5.25-5.25c-0.321-0.321-0.501-0.768-0.501-1.214s0.178-0.893 0.501-1.214l2.429-2.429c0.321-0.321 0.768-0.501 1.214-0.501s0.893 0.178 1.214 0.501l5.25 5.25 5.25-5.25c0.321-0.321 0.768-0.501 1.214-0.501s0.893 0.178 1.214 0.501l2.429 2.429c0.321 0.321 0.501 0.768 0.501 1.214s-0.178 0.893-0.501 1.214l-5.25 5.25 5.25 5.25c0.321 0.321 0.501 0.768 0.501 1.214z"></path>
</symbol>
<symbol id="icon-update" viewBox="0 0 32 32">
<path d="M1.526 17.243c-1.348-7.778 5.397-15.495 13.132-15.895 4.8-0.468 9.532 1.538 12.997 4.782 0.148-1.582-0.492-4.388 1.969-4.191 1.465 1.662 0.658 4.068 0.874 6.080-0.191 1.040 0.406 3.015-1.058 3.249-2.394 0.24-4.868 0.326-7.231-0.185-0.4-0.769-0.357-1.514 0.129-2.234 1.298-0.252 2.628-0.246 3.945-0.338-2.732-2.369-6.018-4.388-9.742-4.443-5.132-0.4-10.191 3.028-11.84 7.877-0.449 1.538-0.523 3.157-0.96 4.695-0.492 0.695-1.502 0.412-2.215 0.603z"></path>
<path d="M27.877 14.757c0.751 0.117 2.48-0.64 2.449 0.658 0.745 7.44-5.742 14.511-13.114 14.978-4.394 0.535-8.597-1.637-11.631-4.677-0.197 1.409 0.486 4.092-1.711 4-0.24-0.16-0.714-0.474-0.948-0.634-0.326-2.511-0.080-5.065-0.271-7.588 0.16-0.289 0.492-0.862 0.652-1.145 2.634 0.111 5.397-0.505 7.926 0.412 1.206 2.929-2.788 2.308-4.443 2.382 2.24 2.068 4.775 4.16 7.932 4.468 5.317 0.72 10.689-2.849 12.351-7.889 0.511-1.606 0.64-3.298 0.806-4.966z"></path>
</symbol>
<symbol id="icon-arrow-up" viewBox="0 0 21 32">
<path fill="#fff" style="fill: var(--color1, #fff)" d="M19.197 21.143c0 0.143-0.080 0.297-0.183 0.4l-0.903 0.891c-0.114 0.103-0.251 0.171-0.41 0.171-0.143 0-0.304-0.080-0.41-0.183l-7.027-7.029-7.017 7.029c-0.114 0.103-0.274 0.171-0.41 0.171-0.143 0-0.304-0.080-0.41-0.183l-0.903-0.903c-0.114-0.114-0.183-0.274-0.183-0.411 0-0.143 0.069-0.309 0.171-0.411l8.32-8.331c0.103-0.114 0.263-0.183 0.41-0.183 0.143 0 0.304 0.069 0.41 0.171l8.32 8.32c0.103 0.103 0.171 0.263 0.171 0.4z"></path>
</symbol>
<symbol id="icon-play-video" viewBox="0 0 32 32">
<path fill="#fff" style="fill: var(--color1, #fff)" d="M16 0c-8.836 0-15.999 7.164-15.999 16s7.163 16 16 16 16-7.163 16-16v0c-0.010-8.832-7.168-15.99-15.999-16h-0.001zM16 30.667c-8.1 0-14.667-6.567-14.667-14.667s6.567-14.667 14.667-14.667c8.1 0 14.667 6.567 14.667 14.667v0c-0.009 8.097-6.57 14.658-14.666 14.667h-0.001z"></path>
<path fill="#fff" style="fill: var(--color1, #fff)" d="M22.361 15.44l-9.333-6c-0.102-0.067-0.227-0.106-0.361-0.106-0.368 0-0.667 0.299-0.667 0.667 0 0 0 0 0 0v0 12.002c0 0 0 0 0 0 0 0.368 0.299 0.667 0.667 0.667 0.134 0 0.259-0.040 0.363-0.108l-0.003 0.002 9.333-6c0.185-0.121 0.306-0.326 0.306-0.561s-0.121-0.44-0.303-0.559l-0.003-0.002zM13.333 20.779v-9.557l7.433 4.778z"></path>
</symbol>
<symbol id="icon-pause" viewBox="0 0 32 32">
<path fill="#fff" style="fill: var(--color1, #fff)" d="M15.123 0h1.672c1.524 0.185 3.069 0.386 4.52 0.914 3.13 1.212 5.971 3.291 7.805 6.13 1.928 2.804 2.824 6.247 2.741 9.632-0.147 3.602-1.608 7.108-3.981 9.809-2.32 2.574-5.448 4.444-8.867 5.090-2.954 0.59-6.070 0.322-8.88-0.765-3.427-1.348-6.372-3.902-8.149-7.131-1.222-2.21-1.904-4.711-1.984-7.235v-1.733c0.4-5.432 3.794-10.536 8.686-12.951 1.962-1.121 4.216-1.536 6.438-1.759zM13.617 1.552c-5.046 0.729-9.513 4.379-11.311 9.141-1.363 3.419-1.272 7.358 0.109 10.757 1.439 3.556 4.323 6.521 7.879 7.978 2.844 1.189 6.072 1.469 9.065 0.71 3.584-0.827 6.782-3.117 8.779-6.195 1.894-2.872 2.753-6.438 2.262-9.852-0.487-3.892-2.626-7.547-5.784-9.876-3.115-2.323-7.165-3.299-10.999-2.661z"></path>
<path fill="#fff" style="fill: var(--color1, #fff)" d="M12.414 10.252c0.394-0.268 1.069-0.044 0.998 0.497 0.006 3.623 0.012 7.247-0.004 10.868-0.016 0.658-1.171 0.65-1.177-0.010-0.022-3.494 0-6.99-0.012-10.486 0.014-0.294-0.046-0.644 0.195-0.869z"></path>
<path fill="#fff" style="fill: var(--color1, #fff)" d="M18.389 10.244c0.394-0.254 1.055-0.034 0.986 0.501 0.006 3.621 0.012 7.245-0.004 10.866-0.008 0.654-1.151 0.664-1.177 0.010-0.022-3.5 0.002-7.002-0.012-10.502 0.014-0.296-0.048-0.656 0.207-0.875z"></path>
</symbol>
<symbol id="icon-facebook" viewBox="0 0 32 32">
<path fill="#fff" style="fill: var(--color1, #fff)" d="M8.2 2.080c3.44-0.698 6.978-0.307 10.467-0.418 3.249-0.013 7 0.151 9.373 2.698 2.489 2.8 2.293 6.804 2.293 10.311-0.124 3.8 0.493 7.853-1.209 11.4-1.169 2.436-3.8 3.733-6.378 4.053-4.147 0.467-8.329 0.324-12.484 0.107-2.716-0.169-5.662-1.196-7.102-3.662-1.804-3.044-1.449-6.729-1.493-10.124 0.076-3.498-0.378-7.222 1.187-10.484 1-2.093 3.12-3.436 5.347-3.88zM10.28 3.773c-2.173 0.142-4.631 0.947-5.631 3.058-1.44 3.142-0.853 6.702-0.982 10.044 0.076 3.133-0.396 6.742 1.702 9.364 2.111 2.222 5.476 2.058 8.298 2.098 0-2.507 0-5.013 0-7.52-0.853-0.133-2.16 0.151-2.569-0.844-0.151-1.293-0.222-2.644 0.053-3.924 0.493-0.933 1.671-0.498 2.52-0.618 0.076-2.347-0.52-5.204 1.462-6.969 1.889-2.058 4.938-1.378 7.418-1.431 1.196 0.040 1.147 1.418 1.129 2.284-0.076 1.116 0.213 2.324-0.333 3.351-1.129 0.604-2.458 0.253-3.68 0.329 0 0.742 0 1.484 0 2.222 1.169-0.018 2.351-0.031 3.493 0.253 0.649 1.627 0.173 3.733-0.916 5.080-0.858 0-1.72 0.004-2.578 0.009 0.004 2.6-0.004 5.2 0.004 7.8 2.342-0.12 4.969-0.209 6.769-1.916 1.524-1.596 1.769-3.911 1.88-6.009 0.022-2.969 0.027-5.938-0.004-8.907-0.116-2.084-0.347-4.396-1.876-5.969-1.818-1.729-4.493-1.836-6.867-1.893-3.098 0.053-6.204-0.12-9.293 0.107zM15.982 10.724c-0.676 2.156-0.151 4.493-0.316 6.72-0.889 0-1.778 0-2.667 0 0 0.333 0 1 0 1.333 0.889 0 1.778 0 2.667 0 0.004 3.16-0.004 6.32 0.004 9.48 0.667-0.004 1.333-0.009 1.996-0.009-0.004-3.231 0-6.462 0-9.693 1.16 0 2.324 0 3.484 0.004 0.062-0.338 0.182-1.004 0.244-1.338-1.244 0-2.484 0-3.729 0 0.031-1.702-0.062-3.409 0.031-5.107 0.369-1.782 2.676-0.92 3.969-1.111 0-0.667 0-1.333 0-2-1.951 0.040-4.702-0.498-5.684 1.72z"></path>
</symbol>
<symbol id="icon-instegram" viewBox="0 0 32 32">
<path fill="#fff" style="fill: var(--color1, #fff)" d="M8.222 2.076c3.431-0.693 6.96-0.302 10.436-0.413 3.258-0.013 7.009 0.151 9.387 2.698 2.773 3.182 2.222 7.702 2.289 11.613-0.067 3.929 0.484 8.458-2.284 11.667-2.267 2.427-5.822 2.702-8.947 2.698-3.284-0.076-6.587 0.169-9.858-0.213-2.48-0.32-5.027-1.511-6.24-3.809-1.693-3.16-1.276-6.871-1.338-10.324 0.053-3.356-0.32-6.924 1.196-10.040 1-2.098 3.129-3.436 5.36-3.876zM11.147 3.707c-2.258 0.107-4.893 0.569-6.209 2.627-1.44 2.356-1.244 5.253-1.271 7.907 0.089 3.093-0.258 6.236 0.391 9.289 0.373 1.804 1.569 3.493 3.369 4.084 3.324 1.138 6.893 0.591 10.333 0.724 2.933-0.036 6.342 0.222 8.68-1.893 2.213-2.458 1.84-6.044 1.893-9.107-0.142-3.507 0.489-7.231-0.996-10.533-1.196-2.458-4.173-3.018-6.64-3.111-3.182-0.040-6.369-0.058-9.551 0.013z"></path>
<path fill="#fff" style="fill: var(--color1, #fff)" d="M22.396 8.276c0.924-0.533 2.6-0.298 2.467 1.067 0.12 1.36-1.556 1.582-2.476 1.040-0.187-0.698-0.182-1.413 0.009-2.107z"></path>
<path fill="#fff" style="fill: var(--color1, #fff)" d="M14.444 10.56c3.227-1.062 6.933 1.467 7.173 4.84 0.529 3.538-3 6.898-6.511 6.178-3.364-0.396-5.671-4.244-4.467-7.409 0.569-1.72 2.049-3.142 3.804-3.609zM14.471 12.693c-2.351 1-2.849 4.516-0.809 6.084 1.889 1.769 5.36 0.627 5.858-1.907 0.871-2.804-2.453-5.538-5.049-4.178z"></path>
</symbol>
<symbol id="icon-send" viewBox="0 0 32 32">
<path fill="none" stroke="#fff" style="stroke: var(--color1, #fff)" stroke-linejoin="round" stroke-linecap="round" stroke-miterlimit="4" stroke-width="2.6667" d="M9.867 8.423l11.319-3.769c5.081-1.692 7.84 1.079 6.16 6.16l-3.772 11.321c-2.533 7.612-6.693 7.612-9.227 0l-1.124-3.362-3.36-1.12c-7.611-2.533-7.611-6.679 0.004-9.23z"></path>
<path fill="none" stroke="#fff" style="stroke: var(--color1, #fff)" stroke-linejoin="round" stroke-linecap="round" stroke-miterlimit="4" stroke-width="2.6667" d="M13.479 18.199l4.773-4.786"></path>
</symbol>
<symbol id="icon-toggler" viewBox="0 0 32 32">
<path d="M3.142 8.507c3.236-0.36 6.502-0.089 9.751-0.173 5.311 0.098 10.644-0.2 15.947 0.16 0.009 0.556 0.013 1.111 0.013 1.667-5.16 0.391-10.351 0.071-15.524 0.173-3.396-0.089-6.809 0.2-10.191-0.173-0.004-0.551 0-1.102 0.004-1.653z"></path>
<path d="M3.133 15.182c3.236-0.378 6.507-0.093 9.756-0.182 5.316 0.098 10.649-0.196 15.951 0.156 0.004 0.56 0.009 1.116 0.013 1.676-5.156 0.382-10.342 0.067-15.511 0.169-3.396-0.084-6.809 0.191-10.196-0.169-0.009-0.551-0.013-1.102-0.013-1.649z"></path>
<path d="M3.142 21.844c3.231-0.369 6.493-0.093 9.738-0.178 5.32 0.098 10.653-0.196 15.96 0.156 0.004 0.56 0.004 1.124 0.004 1.684-0.876 0.098-1.751 0.178-2.631 0.173-6.964-0.027-13.929-0.009-20.893-0.009-0.733-0.009-1.462-0.102-2.191-0.187 0-0.547 0.004-1.098 0.013-1.64z"></path>
</symbol>
</defs>
</svg>
