<svg xmlns="http://www.w3.org/2000/svg" width="122.127" height="24.171" viewBox="0 0 122.127 24.171"><defs><style>.a{fill:#738d83;}</style></defs><path class="a" d="M91.663,40.568a5.581,5.581,0,0,0-2.472.668v7.623a16.078,16.078,0,0,0,1.781.067c2.42,0,2.752-1.108,2.752-2.656V42.629C93.724,41.486,93.345,40.568,91.663,40.568Zm-16.075-.416c-1.679,0-2.063.922-2.063,2.064v.642h4.123v-.642C77.649,41.074,77.266,40.152,75.589,40.152Zm-31.14,7.934a1.2,1.2,0,0,0,1.367,1.372,5.011,5.011,0,0,0,2.343-.667V46.983H45.953C44.908,46.983,44.449,47.178,44.449,48.086ZM107.3,40.568c-1.682,0-2.265.918-2.265,2.061V46.8c0,1.146.583,2.067,2.265,2.067s2.265-.921,2.265-2.067V42.629C109.564,41.486,108.977,40.568,107.3,40.568Zm-71.094,12.2H31.261V40.794H28.79V36.67h2.471V34.193c0-3.365,1.394-5.365,5.358-5.365h3.3v4.125H37.857c-1.543,0-1.645.577-1.645,1.652l-.006,2.064h3.736L39.5,40.794h-3.3Zm16.9.031H48.984l-.178-1.042a9.446,9.446,0,0,1-4.669,1.211c-3.022,0-4.631-2.019-4.631-4.811,0-3.294,1.877-4.47,5.235-4.47h3.418v-.712c0-1.682-.193-2.175-2.779-2.175H41.152l.413-4.124h4.621c5.674,0,6.918,1.792,6.918,6.333v9.791ZM67.119,41.1a23.586,23.586,0,0,0-4.535-.536c-2.216,0-2.886.489-2.886,2.371v3.561c0,1.882.67,2.373,2.886,2.373a23.535,23.535,0,0,0,4.535-.54v4.023a21.858,21.858,0,0,1-4.947.636c-5.309,0-7.419-2.792-7.419-6.825V43.271c0-4.036,2.11-6.833,7.419-6.833a21.765,21.765,0,0,1,4.947.639V41.1ZM82.593,46.16H73.526v.332c0,1.882.67,2.373,2.886,2.373a28.829,28.829,0,0,0,5.768-.54v4.023A26,26,0,0,1,76,52.985c-5.309,0-7.421-2.792-7.421-6.825v-3.3c0-3.529,1.566-6.419,7.007-6.419s7.005,2.857,7.005,6.419Zm16.074.076c0,3.9-1.114,6.741-7.863,6.741a37.328,37.328,0,0,1-6.557-.628V30.067l4.943-.825v7.794a11.223,11.223,0,0,1,3.709-.6c4.944,0,5.767,2.216,5.767,5.778v4.02Zm15.846.085c0,3.363-1.388,6.624-7.2,6.624s-7.226-3.262-7.226-6.624V43.074c0-3.364,1.414-6.626,7.226-6.626s7.2,3.262,7.2,6.626v3.247Zm15.835,0c0,3.363-1.39,6.624-7.2,6.624s-7.226-3.262-7.226-6.624V43.074c0-3.364,1.414-6.626,7.226-6.626s7.2,3.262,7.2,6.626v3.247Zm16.25,6.442h-5.358L136.709,45.2v7.565h-4.945v-22.7l4.945-.825V43.853l4.532-7.183H146.6l-4.947,7.838Zm-23.465-12.2c-1.679,0-2.262.918-2.262,2.061V46.8c0,1.146.583,2.067,2.262,2.067s2.271-.921,2.271-2.067V42.629C125.4,41.486,124.811,40.568,123.134,40.568Zm26.287,9.372a1.514,1.514,0,1,1-.006,0Zm-.006.237a1.294,1.294,0,0,0,.006,2.584,1.294,1.294,0,0,0,0-2.584Zm-.284,2.178h-.271v-1.7a3.127,3.127,0,0,1,.482-.04.905.905,0,0,1,.53.128.411.411,0,0,1,.154.352.424.424,0,0,1-.331.415v.013c.149.028.25.162.284.413a1.418,1.418,0,0,0,.107.422H149.8a1.282,1.282,0,0,1-.115-.435.318.318,0,0,0-.366-.3h-.188v.734Zm0-.943h.2c.223,0,.412-.082.412-.293,0-.149-.107-.3-.412-.3a1.4,1.4,0,0,0-.2.013Z" transform="translate(-28.79 -28.828)"/></svg>