<svg xmlns="http://www.w3.org/2000/svg" width="100.805" height="33.183" viewBox="0 0 100.805 33.183"><defs><style>.a{fill:#738d83;}</style></defs><path class="a" d="M87.886,33.292A8.318,8.318,0,1,1,79.568,25,8.19,8.19,0,0,1,87.886,33.292Zm-3.641,0a4.689,4.689,0,1,0-9.354,0,4.689,4.689,0,1,0,9.354,0Z" transform="translate(-44.748 -15.829)"/><path class="a" d="M135.886,33.292A8.318,8.318,0,1,1,127.568,25,8.19,8.19,0,0,1,135.886,33.292Zm-3.641,0a4.689,4.689,0,1,0-9.354,0,4.689,4.689,0,1,0,9.354,0Z" transform="translate(-74.803 -15.829)"/><path class="a" d="M183.126,25.5V40.388c0,6.124-3.611,8.625-7.881,8.625a7.9,7.9,0,0,1-7.35-4.886l3.17-1.32a4.58,4.58,0,0,0,4.176,2.942c2.733,0,4.426-1.686,4.426-4.86V39.7h-.127a5.646,5.646,0,0,1-4.367,1.884,8.3,8.3,0,0,1,0-16.58,5.746,5.746,0,0,1,4.367,1.854h.127V25.5h3.458Zm-3.2,7.821c0-2.92-1.948-5.054-4.426-5.054a4.8,4.8,0,0,0-4.617,5.054,4.759,4.759,0,0,0,4.617,4.995C177.978,38.317,179.926,36.212,179.926,33.322Z" transform="translate(-104.845 -15.829)"/><path class="a" d="M219.052,3V27.3H215.5V3Z" transform="translate(-135.07 -2.054)"/><path class="a" d="M241.4,36.015l2.826,1.884a8.254,8.254,0,0,1-6.909,3.675,8.113,8.113,0,0,1-8.228-8.292c0-4.931,3.548-8.292,7.821-8.292,4.3,0,6.408,3.424,7.1,5.275l.378.942L233.3,35.8a4.22,4.22,0,0,0,4.019,2.512A4.733,4.733,0,0,0,241.4,36.015Zm-8.7-2.983,7.41-3.077a3.21,3.21,0,0,0-3.077-1.757A4.548,4.548,0,0,0,232.7,33.032Z" transform="translate(-143.579 -15.823)"/><path class="a" d="M13.419,15.775V12.258H25.273a11.656,11.656,0,0,1,.176,2.123A11.618,11.618,0,0,1,22.4,22.61a11.774,11.774,0,0,1-8.98,3.611A13.056,13.056,0,0,1,.36,13.345,13.056,13.056,0,0,1,13.422.47a12.269,12.269,0,0,1,8.823,3.548L19.763,6.5a8.967,8.967,0,0,0-6.344-2.512,9.236,9.236,0,0,0-9.234,9.358A9.236,9.236,0,0,0,13.419,22.7a8.614,8.614,0,0,0,6.5-2.576,7.292,7.292,0,0,0,1.907-4.355Z" transform="translate(-0.36 -0.47)"/></svg>