<svg xmlns="http://www.w3.org/2000/svg" width="97.165" height="26.259" viewBox="0 0 97.165 26.259"><defs><style>.a{fill:#738d83;}</style></defs><path class="a" d="M13.36,24.567c-1.462.257-2.949.334-4.488.539L4.18,11.36V25.7c-1.462.154-2.8.359-4.18.564V0H3.9L9.232,14.9V0H13.36V24.567Zm8.078-14.95c1.59,0,4.026-.077,5.488-.077v4.1c-1.821,0-3.949,0-5.488.077v6.1c2.411-.154,4.821-.359,7.257-.436v3.949l-11.36.9V0H28.7V4.1H21.438ZM43.954,4.1H39.7V22.977c-1.385,0-2.77,0-4.1.051V4.1H31.337V0H43.954V4.1Zm6.667,5.231h5.616v4.1H50.621v9.309H46.595V0H58.058V4.1H50.621Zm14.1,9.822c2.334.051,4.693.231,6.975.359v4.052c-3.667-.231-7.334-.461-11.078-.539V0h4.1V19.156Zm10.437,4.693c1.308.077,2.693.154,4.026.308V0H75.162ZM97.165,0,91.959,12.489l5.206,13.771c-1.539-.205-3.077-.487-4.616-.744L89.6,17.925l-3,6.975c-1.488-.257-2.924-.334-4.411-.539l5.283-12.027L82.7,0h4.411L89.8,6.9,92.677,0h4.488Z"/></svg>