<svg xmlns="http://www.w3.org/2000/svg" width="101.695" height="27.099" viewBox="0 0 101.695 27.099"><defs><style>.a{fill:#738d83;}</style></defs><g transform="translate(0 0)"><path class="a" d="M12.2-140.366H4.294a1.1,1.1,0,0,0-1.086.928l-3.2,20.283a.659.659,0,0,0,.652.761H4.437a1.1,1.1,0,0,0,1.086-.929l.863-5.471a1.1,1.1,0,0,1,1.085-.929h2.5c5.21,0,8.218-2.521,9-7.518.354-2.186.015-3.9-1.009-5.106C16.845-139.668,14.851-140.366,12.2-140.366Zm.913,7.408c-.433,2.838-2.6,2.838-4.7,2.838H7.224l.837-5.3a.659.659,0,0,1,.651-.556H9.26c1.428,0,2.776,0,3.472.814a2.636,2.636,0,0,1,.384,2.2" transform="translate(0 140.367)"/><path class="a" d="M110.8-103.955h-3.788a.66.66,0,0,0-.651.556l-.167,1.059-.265-.384c-.82-1.19-2.649-1.588-4.474-1.588A8.71,8.71,0,0,0,93-96.694a7.15,7.15,0,0,0,1.411,5.819,5.927,5.927,0,0,0,4.771,1.927,7.248,7.248,0,0,0,5.243-2.168l-.169,1.052a.659.659,0,0,0,.65.763h3.412a1.1,1.1,0,0,0,1.086-.929l2.047-12.964A.656.656,0,0,0,110.8-103.955Zm-5.28,7.372a4.222,4.222,0,0,1-4.273,3.617,3.2,3.2,0,0,1-2.543-1.021,3.22,3.22,0,0,1-.594-2.661,4.24,4.24,0,0,1,4.245-3.645,3.2,3.2,0,0,1,2.526,1.032,3.279,3.279,0,0,1,.641,2.68" transform="translate(-74.955 111.273)"/><path class="a" d="M216.417-102.466h-3.806a1.1,1.1,0,0,0-.91.482l-5.25,7.733-2.225-7.431a1.1,1.1,0,0,0-1.055-.784h-3.74a.66.66,0,0,0-.626.872L203-89.29l-3.942,5.564a.659.659,0,0,0,.538,1.041h3.8a1.1,1.1,0,0,0,.9-.472l12.66-18.274a.659.659,0,0,0-.541-1.035" transform="translate(-160.396 109.784)"/><path class="a" d="M304.453-140.366h-7.911a1.1,1.1,0,0,0-1.085.928l-3.2,20.283a.658.658,0,0,0,.65.761h4.06a.769.769,0,0,0,.759-.65l.908-5.749a1.1,1.1,0,0,1,1.085-.929h2.5c5.211,0,8.217-2.521,9-7.518a6.088,6.088,0,0,0-1.01-5.106C309.093-139.668,307.1-140.366,304.453-140.366Zm.913,7.408c-.431,2.838-2.6,2.838-4.7,2.838h-1.192l.839-5.3a.657.657,0,0,1,.65-.556h.547c1.427,0,2.776,0,3.472.814a2.637,2.637,0,0,1,.383,2.2" transform="translate(-235.83 140.367)"/><path class="a" d="M403.067-103.955h-3.785a.656.656,0,0,0-.65.556l-.168,1.059-.266-.384c-.82-1.19-2.647-1.588-4.473-1.588a8.709,8.709,0,0,0-8.456,7.617,7.153,7.153,0,0,0,1.41,5.819,5.93,5.93,0,0,0,4.771,1.927,7.247,7.247,0,0,0,5.243-2.168l-.169,1.052a.659.659,0,0,0,.652.763h3.411a1.1,1.1,0,0,0,1.085-.929l2.048-12.964A.661.661,0,0,0,403.067-103.955Zm-5.28,7.372a4.22,4.22,0,0,1-4.274,3.617,3.2,3.2,0,0,1-2.543-1.021,3.229,3.229,0,0,1-.594-2.661,4.241,4.241,0,0,1,4.245-3.645,3.2,3.2,0,0,1,2.526,1.032,3.263,3.263,0,0,1,.641,2.68" transform="translate(-310.801 111.273)"/><path class="a" d="M487.458-139.814l-3.247,20.654a.658.658,0,0,0,.65.761h3.264a1.1,1.1,0,0,0,1.086-.929l3.2-20.282a.659.659,0,0,0-.65-.762h-3.655a.66.66,0,0,0-.65.557" transform="translate(-390.727 140.371)"/></g></svg>