<svg xmlns="http://www.w3.org/2000/svg" width="69.128" height="30.382" viewBox="0 0 69.128 30.382"><defs><style>.a{fill:#738d83;}</style></defs><path class="a" d="M.1,30.039l.121-.408.019-.066.319-.159c.176-.087.381-.188.457-.223a3.093,3.093,0,0,0,1.254-1.114,10.153,10.153,0,0,0,.887-2.3c.091-.3,5.771-19.768,5.981-20.5a7.932,7.932,0,0,0,.426-2.4,1.6,1.6,0,0,0-.492-1.008,3.853,3.853,0,0,0-.466-.379c-.028-.017-.157-.124-.287-.238l-.24-.208s.033-.745.039-.788L8.127.207l5.654,0c4.06,0,5.727.008,5.912.018.572.03.727.039,1.019.062a11.145,11.145,0,0,1,4.826,1.22,6.285,6.285,0,0,1,3.2,4.987,7.988,7.988,0,0,1-.793,4.385A10.311,10.311,0,0,1,25.321,14.1a11.486,11.486,0,0,1-4.9,2.358,16.678,16.678,0,0,1-3.1.394c-.375.016-1.565.008-1.877-.012-.932-.06-1.913-.161-2.823-.292a1.858,1.858,0,0,0-.241-.026c-.007.007-2.365,8.108-2.514,8.634a10.268,10.268,0,0,0-.449,2.3,1.9,1.9,0,0,0,.657,1.533c.067.055.158.133.2.174.1.088.094.087.56.259.2.073.36.138.36.143s-.056.169-.124.363l-.142.4-.017.05H0ZM15.755,14.961a5.143,5.143,0,0,0,3.059-1.3,7.194,7.194,0,0,0,1.373-1.7,13.657,13.657,0,0,0,.768-1.5A10.614,10.614,0,0,0,21.778,7.2a6.186,6.186,0,0,0-.322-2.9,3.459,3.459,0,0,0-.839-1.23,4,4,0,0,0-2.628-1.09,11.909,11.909,0,0,0-1.49.035c-.013.011-3.676,12.784-3.669,12.791s1.018.118,1.469.148c.389.025.372.025.838.027C15.43,14.978,15.618,14.973,15.755,14.961ZM53.317,30.374a11.948,11.948,0,0,1-5.242-1.215A10.392,10.392,0,0,1,43.8,24.783a13.7,13.7,0,0,1-1.631-5.353,18.666,18.666,0,0,1,.182-4.92,16.054,16.054,0,0,1,3.694-7.784,20.483,20.483,0,0,1,1.968-1.98A18.792,18.792,0,0,1,57.048.314,19.222,19.222,0,0,1,60.107.007a17.455,17.455,0,0,1,2.517.108,22.088,22.088,0,0,1,2.524.579,13.553,13.553,0,0,0,1.417.33,3.462,3.462,0,0,0,.821-.006,1.5,1.5,0,0,0,.967-.632l.056-.073h.362c.285,0,.361,0,.356.015s-.4,1.621-.877,3.585l-.871,3.57-.369,0-.369,0-.008-.187A6,6,0,0,0,66.2,5.028a3.971,3.971,0,0,0-.827-1.1c-.116-.126-.3-.331-.411-.457a4.764,4.764,0,0,0-2.057-1.451,6.213,6.213,0,0,0-2.17-.356,6.525,6.525,0,0,0-.937.056,9.888,9.888,0,0,0-4.867,2.247,16.417,16.417,0,0,0-4.385,5.984A23.528,23.528,0,0,0,48.305,20.5a10.72,10.72,0,0,0,1.46,5.716A7.385,7.385,0,0,0,51.074,27.7a4.819,4.819,0,0,0,2.436,1.136,4.2,4.2,0,0,0,1.429-.03,7.339,7.339,0,0,0,1.031-.289c.181-.065.515-.2.6-.238l.046-.022,1.017-3.836c.559-2.11,1.072-4.055,1.139-4.322a6.921,6.921,0,0,0,.365-2.289,1.988,1.988,0,0,0-.545-1c-.062-.074-.163-.2-.225-.276a1.679,1.679,0,0,0-.164-.183,1.117,1.117,0,0,0-.726-.171l-.218-.008.1-.4.1-.4,4.879,0,4.879,0-.085.394c-.047.216-.087.4-.089.4a1.366,1.366,0,0,1-.188.091,1.311,1.311,0,0,0-.36.2c-.048.036-.141.1-.2.14a2.293,2.293,0,0,0-.732.722,6.426,6.426,0,0,0-.692,2.037c-.07.277-.661,2.486-1.313,4.909l-1.186,4.406-.311.124a22.029,22.029,0,0,1-6.2,1.49A23.574,23.574,0,0,1,53.317,30.374Zm-27.978-.129a5.211,5.211,0,0,1-3.98-1.753,4.252,4.252,0,0,1-1.01-2.086,3.731,3.731,0,0,1-.057-.786,5.25,5.25,0,0,1,.554-2.448,5.561,5.561,0,0,1,1.139-1.488,14.569,14.569,0,0,1,2.821-2.1c.857-.5,1.986-1.083,3.139-1.608.151-.069.279-.129.284-.134a2.239,2.239,0,0,0-.026-.283c-.073-.574-.142-1.248-.178-1.733-.02-.276-.02-1.259,0-1.488a7.894,7.894,0,0,1,.521-2.319,7.088,7.088,0,0,1,1.709-2.524,6.083,6.083,0,0,1,4.52-1.829,3.734,3.734,0,0,1,2.794,1.133,3.137,3.137,0,0,1,.78,1.354,3.4,3.4,0,0,1,.094,1.05,4.482,4.482,0,0,1-.433,1.789,5.012,5.012,0,0,1-1.021,1.386,11.066,11.066,0,0,1-2.607,1.91c-.314.175-1.03.531-1.394.692l-.342.152-.061.027.051.162c.57,1.813.845,2.664,1.107,3.419a14.6,14.6,0,0,0,.826,2c.168.338.251.5.442.843l.106.192.069-.075a7.658,7.658,0,0,0,1.118-1.605,6.379,6.379,0,0,0,.424-1.148,1.614,1.614,0,0,0-.3-1.674,1.69,1.69,0,0,0-.7-.4l-.183-.06.1-.286.1-.286h3.054c1.68,0,3.054,0,3.054.01s-.052.133-.114.284l-.115.274-.07.021a3.583,3.583,0,0,0-1.267.6,17.153,17.153,0,0,0-2.352,2.792,28.23,28.23,0,0,1-2.035,2.455l-.16.171.2.268a11.811,11.811,0,0,0,1.222,1.423,3.811,3.811,0,0,0,1.738,1.111,2.769,2.769,0,0,0,1.329,0,2.732,2.732,0,0,0,.967-.561l.146-.118h.255a2.474,2.474,0,0,1,.255.006c0,.014-.2.406-.288.556a6.8,6.8,0,0,1-.726,1.025,4.971,4.971,0,0,1-2.8,1.6,6.011,6.011,0,0,1-2.475-.07,5.127,5.127,0,0,1-2.061-1.064,11.479,11.479,0,0,1-1.025-.939l-.158-.167-.354.237a13.442,13.442,0,0,1-1.674.966,10.61,10.61,0,0,1-3.841,1.1A10.242,10.242,0,0,1,25.339,30.245Zm3.62-2.23a5.186,5.186,0,0,0,1.839-.574,6.654,6.654,0,0,0,.873-.493.38.38,0,0,0-.045-.079c-.131-.193-.429-.693-.616-1.033a27.505,27.505,0,0,1-2.489-6.613c-.02-.09-.038-.17-.041-.178a8.668,8.668,0,0,0-1.242.758A5.117,5.117,0,0,0,25.448,21.8a4.823,4.823,0,0,0,.577,4.777,4.087,4.087,0,0,0,1.6,1.234A3.021,3.021,0,0,0,28.959,28.016Zm3.469-12.15a7.547,7.547,0,0,0,1.522-1.432,5.8,5.8,0,0,0,.86-1.633A4.51,4.51,0,0,0,34.8,9.722a1.317,1.317,0,0,0-.816-.757,1.366,1.366,0,0,0-1.4.4,4.782,4.782,0,0,0-.7,3.2,19.591,19.591,0,0,0,.378,3.232.764.764,0,0,0,.035.149A1.249,1.249,0,0,0,32.427,15.866Z"/></svg>